<svg width="40" height="40" viewBox="0 0 40 40" fill="none" xmlns="http://www.w3.org/2000/svg">
<path d="M28.3335 28.3333C26.4925 28.3333 25.0002 29.8257 25.0002 31.6667C25.0002 33.5076 26.4925 35 28.3335 35C30.1744 35 31.6668 33.5076 31.6668 31.6667C31.6668 29.8257 30.1744 28.3333 28.3335 28.3333ZM28.3335 28.3333H12.279C11.4496 28.3333 10.7464 27.7235 10.6291 26.9024L10.1192 23.3333M3.3335 5H7.50016L7.97635 8.33333M7.97635 8.33333H8.3335H35.0002L30.0002 23.3333H10.8335H10.1192M7.97635 8.33333L10.1192 23.3333M18.3335 31.6667C18.3335 33.5076 16.8411 35 15.0002 35C13.1592 35 11.6668 33.5076 11.6668 31.6667C11.6668 29.8257 13.1592 28.3333 15.0002 28.3333C16.8411 28.3333 18.3335 29.8257 18.3335 31.6667Z" stroke="#F7F7F7" stroke-width="1.5" stroke-linecap="round" stroke-linejoin="round"/>
<path d="M19.5028 20.0923H20.5959V16.5895H24.0987V15.5028H20.5959V12H19.5028V15.5028H16V16.5895H19.5028V20.0923Z" fill="white"/>
</svg>
