<svg width="32" height="32" viewBox="0 0 32 32" fill="none" xmlns="http://www.w3.org/2000/svg">
<path d="M31 16C31 24.2843 24.2843 31 16 31M31 16C31 7.71573 24.2843 1 16 1M31 16H1M16 31C7.71573 31 1 24.2843 1 16M16 31C16 31 22.6667 26 22.6667 16C22.6667 6 16 1 16 1M16 31C16 31 9.33333 26 9.33333 16C9.33334 6 16 1 16 1M1 16C1 7.71573 7.71573 1 16 1" stroke="url(#paint0_linear_1_1094)" stroke-width="1.5"/>
<defs>
<linearGradient id="paint0_linear_1_1094" x1="31" y1="16" x2="1" y2="16" gradientUnits="userSpaceOnUse">
<stop stop-color="#CB333B"/>
<stop offset="1" stop-color="#631D1B"/>
</linearGradient>
</defs>
</svg>
