<svg width="32" height="32" viewBox="0 0 32 32" fill="none" xmlns="http://www.w3.org/2000/svg">
<path d="M30.999 23.4611V27.9774C31.006 29.7038 29.4537 31.1455 27.7107 30.9882C12.6667 31 1 19.225 1.01177 4.28198C0.854792 2.54825 2.28929 1.00177 4.01351 1.00015H8.53875C9.27079 0.992955 9.98047 1.25167 10.5355 1.72807C12.1136 3.08249 13.1285 7.67962 12.738 9.50713C12.4331 10.9339 10.9948 11.9322 10.017 12.9081C12.1643 16.677 15.2911 19.7976 19.0675 21.9406C20.0453 20.9647 21.0455 19.5293 22.4751 19.225C24.3091 18.8346 28.9358 19.8511 30.2848 21.4401C30.7632 22.0035 31.0173 22.7228 30.999 23.4611Z" stroke="url(#paint0_linear_1_1086)" stroke-width="1.5" stroke-linecap="round" stroke-linejoin="round"/>
<defs>
<linearGradient id="paint0_linear_1_1086" x1="30.9999" y1="16" x2="1" y2="16" gradientUnits="userSpaceOnUse">
<stop stop-color="#CB333B"/>
<stop offset="1" stop-color="#631D1B"/>
</linearGradient>
</defs>
</svg>
